<?xml version="1.0" encoding="UTF-8"?>
<svg version="1.1" xmlns="http://www.w3.org/2000/svg" width="900" height="900">
<path d="M0 0 C3.74888398 1.24962799 4.64619319 2.77896986 7.0625 5.875 C10.25774361 9.88329587 13.51929973 13.73150392 17 17.5 C21.11378909 21.9698512 24.97087297 26.59044893 28.78515625 31.31640625 C30.95632827 33.94708557 33.20241357 36.47942424 35.5 39 C38.59555196 42.39598682 41.55151207 45.86171531 44.4375 49.4375 C48.29825137 54.211403 52.37437075 58.73388428 56.53125 63.25 C59.72760399 66.81049559 62.71173149 70.52265827 65.71484375 74.24609375 C68.08366025 77.10082133 70.54926417 79.8343921 73.0625 82.5625 C77.62764598 87.52057717 81.86734167 92.67833662 86 98 C84.41060574 101.93214301 81.83657498 104.33020346 78.8125 107.25 C74.30927467 111.66121846 70.05774316 116.17698072 66 121 C65.2884375 121.82242188 64.576875 122.64484375 63.84375 123.4921875 C21.98401641 172.55505707 -4.04293214 232.91192415 -11 297 C-11.09571289 297.84828369 -11.19142578 298.69656738 -11.29003906 299.57055664 C-12.29174487 309.70878881 -12.24367203 319.88475759 -12.25 330.0625 C-12.25067474 331.0394281 -12.25134949 332.0163562 -12.25204468 333.02288818 C-12.23469964 348.87560482 -11.5503036 364.32416736 -9 380 C-8.75056641 381.5770874 -8.75056641 381.5770874 -8.49609375 383.18603516 C-3.65807498 412.90849309 4.87876798 463.55678892 28 485 C36.67988739 477.19277633 45.00705236 469.08324009 53.19848633 460.7644043 C56.67811719 457.24670868 60.15913914 453.80185172 63.91796875 450.58203125 C69.05523253 446.16891831 73.74817729 441.31999807 78.5 436.5 C88.51712468 426.33915761 88.51712468 426.33915761 92.96875 422.53125 C98.27057041 417.99066164 103.10306387 412.96684481 108 408 C113.49833486 402.4231709 118.99392784 396.92226386 124.94921875 391.828125 C129.32791798 387.9248274 133.38343597 383.67562521 137.5 379.5 C142.83398632 374.0894859 148.16044781 368.78827169 153.93164062 363.84570312 C158.31466081 359.93450948 162.37745325 355.68169376 166.5 351.5 C173.04221913 344.86391833 179.5764899 338.33795443 186.86132812 332.51123047 C201.48642382 320.70427229 207.78387843 305.29388295 215.05175781 288.48388672 C217.78509867 282.16595094 220.65398145 275.910401 223.51461792 269.64938354 C224.44228203 267.6145104 225.36460708 265.57729717 226.28540039 263.53930664 C231.25977294 252.53960329 236.40462656 241.62476713 241.58273315 230.7197876 C246.65843045 220.0250749 251.62932618 209.28955369 256.5 198.5 C261.87637918 186.59666728 267.36240058 174.74910949 272.9375 162.9375 C273.45860352 161.83124268 273.45860352 161.83124268 273.99023438 160.70263672 C278.84932069 150.39443218 283.86357864 140.17279921 289 130 C289.33 130 289.66 130 290 130 C290.27482106 166.37465015 290.48619341 202.7491179 290.61278395 239.12459295 C290.62779197 243.42152395 290.64332388 247.71845291 290.65917969 252.01538086 C290.66232741 252.87080188 290.66547514 253.72622291 290.66871825 254.60756578 C290.72089796 268.44851933 290.81549173 282.28887323 290.92583355 296.12947134 C291.03815486 310.33713294 291.10472669 324.54448106 291.12906194 338.75256842 C291.14550715 347.51622139 291.19739172 356.27817938 291.2949976 365.04131039 C291.35855833 371.05513241 291.3775734 377.06808162 291.36201653 383.08221493 C291.35434802 386.54997027 291.36587468 390.01477053 291.4304657 393.48199654 C291.77881126 415.39259051 291.77881126 415.39259051 287.41434479 420.96478844 C284.60486942 423.82952678 281.39595791 425.87292623 278 428 C276.27695896 429.61915985 274.58731796 431.27558524 272.953125 432.984375 C272.17066406 433.77457031 271.38820313 434.56476563 270.58203125 435.37890625 C269.81246094 436.16136719 269.04289062 436.94382812 268.25 437.75 C259.55898746 446.5837221 259.55898746 446.5837221 255.078125 450.421875 C249.94195443 454.83341942 245.25051773 459.68132563 240.5 464.5 C235.16601368 469.9105141 229.83955219 475.21172831 224.06835938 480.15429688 C219.68533919 484.06549052 215.62254675 488.31830624 211.5 492.5 C206.16601368 497.9105141 200.83955219 503.21172831 195.06835938 508.15429688 C190.68533919 512.06549052 186.62254675 516.31830624 182.5 520.5 C177.1559249 525.92074763 171.81934589 531.23352025 166.03710938 536.18554688 C161.83692794 539.92664807 157.94571106 543.99450544 154 548 C148.83872503 553.2394761 143.67231135 558.35681174 138.08984375 563.14599609 C133.72175093 567.0211476 129.6291191 571.18638171 125.5 575.3125 C124.5821875 576.21806641 123.664375 577.12363281 122.71875 578.05664062 C121.8525 578.92095703 120.98625 579.78527344 120.09375 580.67578125 C119.30677734 581.45864502 118.51980469 582.24150879 117.70898438 583.0480957 C115.78042075 584.81840223 115.78042075 584.81840223 116 587 C117.49399002 588.33629215 117.49399002 588.33629215 119.48828125 589.65234375 C120.62765137 590.43798706 120.62765137 590.43798706 121.79003906 591.23950195 C122.62245117 591.79984131 123.45486328 592.36018066 124.3125 592.9375 C125.16682617 593.51653076 126.02115234 594.09556152 126.90136719 594.69213867 C134.99735085 600.11294708 143.32301086 605.0622363 151.83642578 609.79492188 C153.79415339 610.88534655 155.73954261 611.99483541 157.68359375 613.109375 C192.50630206 632.74077375 232.5770602 643.19756915 272 648 C272.82274414 648.1045752 273.64548828 648.20915039 274.49316406 648.31689453 C284.28240126 649.39282524 294.16435466 649.24391193 304 649.25 C304.97942566 649.25067474 305.95885132 649.25134949 306.96795654 649.25204468 C322.83942266 649.23471457 338.30563012 648.55331942 354 646 C355.0513916 645.83371094 356.1027832 645.66742187 357.18603516 645.49609375 C405.83269052 637.57772332 453.54628093 618.79158379 493 589 C493.78117188 588.41476562 494.56234375 587.82953125 495.3671875 587.2265625 C496.17542969 586.61941406 496.17542969 586.61941406 497 586 C495.5800745 582.76951252 493.86380613 580.61757512 491.3671875 578.13671875 C490.64273438 577.41419922 489.91828125 576.69167969 489.171875 575.94726562 C488.41390625 575.20154297 487.6559375 574.45582031 486.875 573.6875 C486.14023437 572.95337891 485.40546875 572.21925781 484.6484375 571.46289062 C481.24354063 568.08496917 477.81006313 564.79276535 474.1640625 561.67578125 C468.11126939 556.45679891 462.59993537 550.65564462 456.99072266 544.97021484 C450.1838643 538.036338 450.1838643 538.036338 443 531.5 C436.98555004 526.3615007 431.54247754 520.59740606 425.99072266 514.97021484 C419.1838643 508.036338 419.1838643 508.036338 412 501.5 C405.98555004 496.3615007 400.54247754 490.59740606 394.99072266 484.97021484 C388.1838643 478.036338 388.1838643 478.036338 381 471.5 C374.98555004 466.3615007 369.54247754 460.59740606 363.99072266 454.97021484 C362.50640103 453.4675623 361.01888796 451.96811835 359.53125 450.46875 C358.66048828 449.58638672 357.78972656 448.70402344 356.89257812 447.79492188 C354.8309459 445.76530821 352.7062541 443.8318936 350.52820778 441.92785072 C349.8230079 441.30890159 349.11780802 440.68995245 348.39123845 440.05224729 C346.72445154 438.6217505 345.03495738 437.21747119 343.32888675 435.83406138 C323.30132174 419.44820044 323.30132174 419.44820044 321.55902028 406.01362538 C321.23325737 400.41459037 321.25114393 394.87092078 321.44655633 389.26726127 C321.54327482 385.77351732 321.50929765 382.280415 321.4927063 378.78570557 C321.48127265 372.75755523 321.54915731 366.73471783 321.67393875 360.70790482 C321.85420293 351.99557148 321.91017271 343.2857571 321.93767457 334.57176153 C321.98560215 320.42904076 322.13138489 306.28914147 322.34033203 292.14794922 C322.54286041 278.42673678 322.69828968 264.70629583 322.79150391 250.98388672 C322.79728382 250.1353859 322.80306374 249.28688508 322.80901881 248.41267212 C322.83773357 244.15518649 322.8655342 239.89769547 322.89288068 235.64020085 C323.12025284 200.42479093 323.50711374 165.21265763 324 130 C324.66 130 325.32 130 326 130 C326.75337646 131.62736084 326.75337646 131.62736084 327.52197266 133.28759766 C329.8890899 138.40032384 332.25688743 143.51273476 334.625 148.625 C335.27491409 150.02803375 335.27491409 150.02803375 335.93795776 151.45941162 C341.29514485 163.02291943 346.66398348 174.58072835 352.0625 186.125 C357.80355693 198.40405987 363.4869356 210.70924052 369.16125488 223.01925659 C374.18673665 233.92040259 379.23024383 244.81270252 384.3125 255.6875 C384.7349147 256.59154572 384.7349147 256.59154572 385.16586304 257.51385498 C386.55706033 260.49123082 387.94844467 263.46851924 389.33984375 266.44580078 C391.60902724 271.30385568 393.87610676 276.16286967 396.13623047 281.02514648 C397.24237109 283.40062616 398.35327751 285.77389321 399.46923828 288.14477539 C401.85454328 293.23655408 404.16829644 298.31042873 406.1796875 303.5625 C412.20994531 319.00153615 422.49350061 328.69019821 434.90234375 339.35546875 C440.99525963 344.6557857 446.55680023 350.51457354 452.22265625 356.26171875 C456.04451783 360.11695904 459.84191852 363.93867012 463.96875 367.46875 C469.78604904 372.45080489 475.06330896 378.00710875 480.43652344 383.45703125 C485.46086968 388.54653966 490.51207513 393.52095785 495.94921875 398.171875 C501.28905679 402.9319592 506.2026805 408.16972039 511.22265625 413.26171875 C515.05486605 417.12739763 518.86411087 420.95793924 523 424.5 C529.09140264 429.71680287 534.59653402 435.5548774 540.22265625 441.26171875 C544.04322416 445.11565406 547.83914323 448.93626334 551.96484375 452.46484375 C557.29037974 457.02554929 562.14355189 462.073697 567.0625 467.0625 C572.85671688 472.93869671 578.61868789 478.75156993 585 484 C603.72978666 453.90939219 614.1030458 418.66399526 620.3125 384 C620.45993652 383.17846436 620.60737305 382.35692871 620.75927734 381.51049805 C623.58011298 364.5077707 624.37752617 347.52127395 624.3125 330.3125 C624.31067719 329.30530914 624.30885437 328.29811829 624.30697632 327.26040649 C624.26048451 311.9691433 623.70910751 297.08378204 621 282 C620.74259033 280.49880615 620.74259033 280.49880615 620.47998047 278.96728516 C608.53023819 210.39776312 575.69145001 148.58719556 526 100 C527.41919832 95.53966242 529.86616643 92.67150822 533.0625 89.375 C536.71762369 85.50427013 540.2250808 81.59139497 543.5625 77.4375 C546.59357567 73.67161811 549.72581577 70.05670244 553 66.5 C557.11378909 62.0301488 560.97087297 57.40955107 564.78515625 52.68359375 C567.66480887 49.19449084 570.70693876 45.87003079 573.75390625 42.52734375 C576.06187598 39.93037607 578.25555863 37.26595987 580.4375 34.5625 C583.51336588 30.75912497 586.68753166 27.09917348 590 23.5 C594.16214245 18.97593212 598.0870852 14.30870624 601.94921875 9.52734375 C604.57126504 6.29598385 607.27476207 3.1445053 610 0 C614.03075886 1.35066245 616.42239493 3.05592057 619.3984375 6.0703125 C620.20796875 6.885 621.0175 7.6996875 621.8515625 8.5390625 C623.10066406 9.81910156 623.10066406 9.81910156 624.375 11.125 C625.2 11.95515625 626.025 12.7853125 626.875 13.640625 C631.24207979 18.06315977 635.46116728 22.56963719 639.51611328 27.27978516 C641.37945071 29.43988314 643.31454055 31.52952224 645.25 33.625 C650.28716266 39.21522951 654.90512342 45.08940505 659.49365234 51.04785156 C661.06749444 53.08746929 662.65254662 55.1180559 664.23828125 57.1484375 C671.2566846 66.1757916 677.84641859 75.36385977 684 85 C684.47872559 85.7410498 684.95745117 86.48209961 685.45068359 87.24560547 C728.1271374 153.51465997 755.90110328 233.86548354 756.203125 313.2421875 C756.21013931 314.47630371 756.21715363 315.71041992 756.22438049 316.98193359 C756.24180497 320.9463059 756.24881457 324.91059755 756.25 328.875 C756.25044186 329.54969582 756.25088371 330.22439163 756.25133896 330.91953278 C756.2581644 350.77714148 756.01392901 370.32859992 753 390 C752.82839355 391.19399414 752.65678711 392.38798828 752.47998047 393.61816406 C739.17183273 485.31237232 699.38148898 568.70757467 637 637 C636.12472656 637.96808594 635.24945312 638.93617188 634.34765625 639.93359375 C626.63628621 648.44100252 618.77897929 656.76930853 610.0390625 664.23828125 C607.7730777 666.19605739 605.57856506 668.22228948 603.375 670.25 C597.71334404 675.35676166 591.74555735 680.0198815 585.70996094 684.67089844 C584.18086809 685.85941663 582.67106997 687.07266253 581.1640625 688.2890625 C519.96969529 737.07690046 444.06227471 766.92723657 367 778 C365.86755859 778.16516113 364.73511719 778.33032227 363.56835938 778.50048828 C325.4007416 783.75805045 284.08740488 783.75108963 246 778 C244.83645996 777.83902832 243.67291992 777.67805664 242.47412109 777.51220703 C199.50783281 771.52854066 157.48249175 758.89028662 118 741 C117.15276367 740.62311035 116.30552734 740.2462207 115.43261719 739.85791016 C101.80165316 733.77879475 88.869687 726.54128197 76 719 C75.1754834 718.51740723 74.3509668 718.03481445 73.50146484 717.53759766 C62.25733955 710.91370968 51.53678642 703.69384216 41 696 C40.32195312 695.50886719 39.64390625 695.01773438 38.9453125 694.51171875 C28.83755345 687.1729435 19.31163194 679.32156237 10 671 C9.07316406 670.17371094 8.14632812 669.34742188 7.19140625 668.49609375 C5.55945523 667.03217512 3.93163232 665.56363739 2.30859375 664.08984375 C0.76895013 662.69608853 -0.78061463 661.31321551 -2.33984375 659.94140625 C-11.75661913 651.62350904 -21.0145008 642.81885816 -29.12890625 633.20703125 C-30.65425033 631.40782581 -32.2045763 629.64402702 -33.77734375 627.88671875 C-42.82320645 617.71855104 -50.97609392 606.9848717 -59 596 C-59.78673096 594.93724854 -59.78673096 594.93724854 -60.58935547 593.85302734 C-86.27762836 559.11994115 -105.79471214 519.69744394 -120 479 C-120.5583252 477.40696045 -120.5583252 477.40696045 -121.12792969 475.78173828 C-131.44967989 445.96481537 -138.32267219 415.33069229 -142 384 C-142.09182556 383.22916077 -142.18365112 382.45832153 -142.27825928 381.66412354 C-144.20566594 364.92441628 -144.40251021 348.20866146 -144.375 331.375 C-144.37461353 330.68282253 -144.37422707 329.99064507 -144.37382889 329.27749252 C-144.35819228 306.97498646 -143.72341141 285.03142337 -140 263 C-139.87884827 262.26982666 -139.75769653 261.53965332 -139.63287354 260.78735352 C-132.82548059 219.96265461 -120.885691 180.8119095 -104 143 C-103.43031494 141.71391846 -103.43031494 141.71391846 -102.84912109 140.40185547 C-84.49086641 99.25859137 -58.41680111 61.62386171 -28.16015625 28.37890625 C-26.73931735 26.81418494 -25.33004897 25.23886471 -23.93359375 23.65234375 C-19.32640116 18.4342527 -14.53534883 13.43115807 -9.625 8.5 C-9.01760986 7.88801758 -8.41021973 7.27603516 -7.78442383 6.64550781 C-7.20845459 6.07155273 -6.63248535 5.49759766 -6.0390625 4.90625 C-5.52553223 4.39384766 -5.01200195 3.88144531 -4.48291016 3.35351562 C-3 2 -3 2 0 0 Z " fill="#494B4D" transform="translate(144,119)"/>
<path d="M0 0 C3.89521258 0.01611206 7.78938818 0.00000796 11.68457031 -0.01904297 C111.97866457 -0.10395534 207.28984748 37.39548199 285.89550781 98.39111328 C285.05484186 102.63907516 282.83843094 104.92004773 279.89550781 107.95361328 C276.19954303 111.86592722 272.64869622 115.82023617 269.27050781 120.01611328 C266.40668999 123.57295464 263.47204453 127.0165038 260.39550781 130.39111328 C257.29995585 133.7871001 254.34399574 137.25282859 251.45800781 140.82861328 C247.59725644 145.60251628 243.52113706 150.12499756 239.36425781 154.64111328 C236.95172678 157.32848962 234.66294571 160.08076772 232.39550781 162.89111328 C229.34202103 166.67571662 226.1888248 170.31318865 222.89550781 173.89111328 C218.75369268 178.39252786 214.85480801 183.03915966 211.01269531 187.79736328 C208.06427057 191.40945559 204.99718989 194.91044754 201.89550781 198.39111328 C198.69520826 197.78111021 196.6840357 196.72371605 194.09472656 194.76611328 C193.37285156 194.22897705 192.65097656 193.69184082 191.90722656 193.13842773 C191.14023437 192.56181396 190.37324219 191.9852002 189.58300781 191.39111328 C182.22292575 185.97385031 174.77502791 181.01141383 166.83349609 176.49462891 C164.79292332 175.33270034 162.76463211 174.15076172 160.73535156 172.96923828 C113.44037922 145.74475448 59.64292777 131.91670462 5.20800781 132.01611328 C4.13512512 132.01632477 3.06224243 132.01653625 1.95684814 132.01675415 C-16.04667707 132.05203944 -33.37635589 133.1123842 -51.10449219 136.39111328 C-52.13525879 136.57834961 -53.16602539 136.76558594 -54.22802734 136.95849609 C-101.13402974 145.73773495 -152.52197771 164.74817847 -188.83496094 196.80126953 C-191.10449219 198.39111328 -191.10449219 198.39111328 -193.15527344 198.41455078 C-195.80088516 197.02547208 -197.33567243 195.27532408 -199.29199219 193.01611328 C-200.07960938 192.11119141 -200.86722656 191.20626953 -201.67871094 190.27392578 C-204.7809044 186.58726108 -207.82415777 182.85569332 -210.85449219 179.10986328 C-213.7492493 175.61203177 -216.80038757 172.27325924 -219.85839844 168.91845703 C-222.16636817 166.32148935 -224.36005081 163.65707316 -226.54199219 160.95361328 C-229.61785807 157.15023825 -232.79202385 153.49028676 -236.10449219 149.89111328 C-240.21828127 145.42126208 -244.07536515 140.80066435 -247.88964844 136.07470703 C-250.06082045 133.44402771 -252.30690576 130.91168904 -254.60449219 128.39111328 C-258.49316753 124.12502751 -262.1366898 119.70464493 -265.74902344 115.20361328 C-267.43455976 113.19103259 -269.12022273 111.2848439 -270.92871094 109.39111328 C-271.39543213 108.89925537 -271.86215332 108.40739746 -272.34301758 107.90063477 C-273.66193958 106.52411589 -274.99611822 105.16226332 -276.33105469 103.80126953 C-278.10449219 101.39111328 -278.10449219 101.39111328 -277.90112305 99.4074707 C-276.47917704 95.80837415 -273.06765001 93.87720016 -270.04199219 91.64111328 C-269.29900879 91.08327148 -268.55602539 90.52542969 -267.79052734 89.95068359 C-252.86891891 78.89831468 -237.26164696 68.55405026 -221.10449219 59.39111328 C-220.34120605 58.95412109 -219.57791992 58.51712891 -218.79150391 58.06689453 C-173.40860491 32.21979778 -123.87398517 14.58061809 -72.41699219 5.70361328 C-71.33417969 5.5131543 -70.25136719 5.32269531 -69.13574219 5.12646484 C-46.17778477 1.36791924 -23.24053383 -0.11366702 0 0 Z " fill="#FA9C1D" transform="translate(446.1044921875,-0.39111328125)"/>
</svg>
